HIERARCHY
ROOT WildBoar_ROOTSHJnt
{
	OFFSET 0.000000 44.410820 68.815338
	CHANNELS 6 Xposition Yposition Zposition Xrotation Yrotation Zrotation
	JOINT WildBoar_Spine_01SHJnt
	{
		OFFSET -0.000000 -13.726324 -0.500702
		CHANNELS 3 Xrotation Yrotation Zrotation
		JOINT WildBoar_Spine_02SHJnt
		{
			OFFSET -0.000000 -13.721075 -0.511734
			CHANNELS 3 Xrotation Yrotation Zrotation
			JOINT WildBoar_Spine_03SHJnt
			{
				OFFSET -0.000000 -13.733017 -0.763184
				CHANNELS 3 Xrotation Yrotation Zrotation
				JOINT WildBoar_Spine_04SHJnt
				{
					OFFSET 0.000000 -13.726805 1.066475
					CHANNELS 3 Xrotation Yrotation Zrotation
					JOINT WildBoar_Spine_TopSHJnt
					{
						OFFSET 0.000000 -13.726805 0.709183
						CHANNELS 3 Xrotation Yrotation Zrotation
						JOINT WildBoar_l_Clavicle_01_01SHJnt
						{
							OFFSET 8.670297 0.000000 0.000000
							CHANNELS 3 Xrotation Yrotation Zrotation
							JOINT WildBoar_l_FrontLeg_HipSHJnt
							{
								OFFSET 3.164961 0.548840 -12.164703
								CHANNELS 3 Xrotation Yrotation Zrotation
								JOINT WildBoar_l_FrontLeg_Knee1SHJnt
								{
									OFFSET 0.316314 -0.817221 -32.444130
									CHANNELS 3 Xrotation Yrotation Zrotation
									JOINT WildBoar_l_FrontLeg_Knee2SHJnt
									{
										OFFSET 0.171660 1.067869 -17.603088
										CHANNELS 3 Xrotation Yrotation Zrotation
										JOINT WildBoar_l_FrontLeg_AnkleSHJnt
										{
											OFFSET 0.012912 -0.586981 -1.322436
											CHANNELS 3 Xrotation Yrotation Zrotation
											JOINT WildBoar_l_FrontLeg_BallSHJnt
											{
												OFFSET -0.004807 -3.825893 -5.280976
												CHANNELS 3 Xrotation Yrotation Zrotation
												JOINT WildBoar_l_FrontLeg_ToeSHJnt
												{
													OFFSET -0.006160 -4.905069 -0.000002
													CHANNELS 3 Xrotation Yrotation Zrotation
													End Site
													{
														OFFSET 4.905067 -0.006161 -0.000003
													}
												}
											}
										}
									}
								}
							}
						}
						JOINT WildBoar_r_Clavicle_01_01SHJnt
						{
							OFFSET -8.670297 0.000000 0.000000
							CHANNELS 3 Xrotation Yrotation Zrotation
							JOINT WildBoar_r_FrontLeg_HipSHJnt
							{
								OFFSET -3.164964 0.548840 -12.164703
								CHANNELS 3 Xrotation Yrotation Zrotation
								JOINT WildBoar_r_FrontLeg_Knee1SHJnt
								{
									OFFSET -0.316322 -0.817221 -32.444130
									CHANNELS 3 Xrotation Yrotation Zrotation
									JOINT WildBoar_r_FrontLeg_Knee2SHJnt
									{
										OFFSET -0.171665 1.067869 -17.603088
										CHANNELS 3 Xrotation Yrotation Zrotation
										JOINT WildBoar_r_FrontLeg_AnkleSHJnt
										{
											OFFSET -0.012913 -0.586981 -1.322436
											CHANNELS 3 Xrotation Yrotation Zrotation
											JOINT WildBoar_r_FrontLeg_BallSHJnt
											{
												OFFSET 0.004806 -3.825893 -5.280976
												CHANNELS 3 Xrotation Yrotation Zrotation
												JOINT WildBoar_r_FrontLeg_ToeSHJnt
												{
													OFFSET 0.006160 -4.905069 -0.000002
													CHANNELS 3 Xrotation Yrotation Zrotation
													End Site
													{
														OFFSET 4.905068 0.006161 -0.000002
													}
												}
											}
										}
									}
								}
							}
						}
						JOINT WildBoar_Neck_01SHJnt
						{
							OFFSET -0.000000 -12.476246 -2.105774
							CHANNELS 3 Xrotation Yrotation Zrotation
							JOINT WildBoar_Neck_02SHJnt
							{
								OFFSET 0.000000 -10.017231 1.165779
								CHANNELS 3 Xrotation Yrotation Zrotation
								JOINT WildBoar_Neck_TopSHJnt
								{
									OFFSET 0.000000 -9.610825 0.768044
									CHANNELS 3 Xrotation Yrotation Zrotation
									JOINT WildBoar_Head_JawSHJnt
									{
										OFFSET -0.000001 -11.273338 -4.973049
										CHANNELS 3 Xrotation Yrotation Zrotation
										JOINT WildBoar_Head_JawEndSHJnt
										{
											OFFSET -0.000002 -22.190353 -15.124695
											CHANNELS 3 Xrotation Yrotation Zrotation
											End Site
											{
												OFFSET -0.000002 -22.110291 -15.241497
											}
										}
									}
									JOINT WildBoar_Head_TopSHJnt
									{
										OFFSET 0.000002 -15.944977 17.523094
										CHANNELS 3 Xrotation Yrotation Zrotation
										JOINT WildBoar_l_Ear_01_01SHJnt
										{
											OFFSET 10.362524 11.406597 -2.807991
											CHANNELS 3 Xrotation Yrotation Zrotation
											JOINT WildBoar_l_Ear_01_02SHJnt
											{
												OFFSET 6.918999 -0.514683 5.827293
												CHANNELS 3 Xrotation Yrotation Zrotation
												JOINT WildBoar_l_Ear_01_03SHJnt
												{
													OFFSET 5.957382 0.355659 6.469810
													CHANNELS 3 Xrotation Yrotation Zrotation
													End Site
													{
														OFFSET 5.020468 -6.741234 -2.612671
													}
												}
											}
										}
										JOINT WildBoar_r_Ear_01_01SHJnt
										{
											OFFSET -10.362526 11.406597 -2.807991
											CHANNELS 3 Xrotation Yrotation Zrotation
											JOINT WildBoar_r_Ear_01_02SHJnt
											{
												OFFSET -6.918997 -0.514683 5.827293
												CHANNELS 3 Xrotation Yrotation Zrotation
												JOINT WildBoar_r_Ear_01_03SHJnt
												{
													OFFSET -5.957380 0.355659 6.469810
													CHANNELS 3 Xrotation Yrotation Zrotation
													End Site
													{
														OFFSET -5.020468 -6.741234 -2.612671
													}
												}
											}
										}
										JOINT WildBoar_Nose_01_01SHJnt
										{
											OFFSET 0.146534 -15.145607 -20.472496
											CHANNELS 3 Xrotation Yrotation Zrotation
											JOINT WildBoar_Nose_01_02SHJnt
											{
												OFFSET -0.000001 -9.738365 -5.125526
												CHANNELS 3 Xrotation Yrotation Zrotation
												End Site
												{
													OFFSET 0.000001 -6.131317 9.138596
												}
											}
										}
									}
								}
							}
						}
					}
				}
			}
		}
	}
	JOINT WildBoar_l_HindLeg_HipSHJnt
	{
		OFFSET 11.907801 0.071259 -9.892372
		CHANNELS 3 Xrotation Yrotation Zrotation
		JOINT WildBoar_l_HindLeg_Knee1SHJnt
		{
			OFFSET -1.208079 8.601734 -32.196701
			CHANNELS 3 Xrotation Yrotation Zrotation
			JOINT WildBoar_l_HindLeg_Knee2SHJnt
			{
				OFFSET 0.929813 -5.149776 -18.902822
				CHANNELS 3 Xrotation Yrotation Zrotation
				JOINT WildBoar_l_HindLeg_AnkleSHJnt
				{
					OFFSET -0.016349 -0.419094 -2.601883
					CHANNELS 3 Xrotation Yrotation Zrotation
					JOINT WildBoar_l_HindLeg_BallSHJnt
					{
						OFFSET -0.062816 -2.064716 -5.221140
						CHANNELS 3 Xrotation Yrotation Zrotation
						JOINT WildBoar_l_HindLeg_ToeSHJnt
						{
							OFFSET 0.563698 -5.159508 -0.000093
							CHANNELS 3 Xrotation Yrotation Zrotation
							End Site
							{
								OFFSET 5.159507 0.563698 0.000025
							}
						}
					}
				}
			}
		}
	}
	JOINT WildBoar_r_HindLeg_HipSHJnt
	{
		OFFSET -11.907801 0.071259 -9.892372
		CHANNELS 3 Xrotation Yrotation Zrotation
		JOINT WildBoar_r_HindLeg_Knee1SHJnt
		{
			OFFSET 1.208084 8.601734 -32.196701
			CHANNELS 3 Xrotation Yrotation Zrotation
			JOINT WildBoar_r_HindLeg_Knee2SHJnt
			{
				OFFSET -0.929811 -5.149776 -18.902822
				CHANNELS 3 Xrotation Yrotation Zrotation
				JOINT WildBoar_r_HindLeg_AnkleSHJnt
				{
					OFFSET 0.016349 -0.419094 -2.601883
					CHANNELS 3 Xrotation Yrotation Zrotation
					JOINT WildBoar_r_HindLeg_BallSHJnt
					{
						OFFSET 0.062817 -2.064716 -5.221139
						CHANNELS 3 Xrotation Yrotation Zrotation
						JOINT WildBoar_r_HindLeg_ToeSHJnt
						{
							OFFSET -0.563698 -5.159508 -0.000092
							CHANNELS 3 Xrotation Yrotation Zrotation
							End Site
							{
								OFFSET 5.159507 -0.563698 -0.000023
							}
						}
					}
				}
			}
		}
	}
	JOINT WildBoar_Tail_01_01SHJnt
	{
		OFFSET 0.000000 20.717888 9.172180
		CHANNELS 3 Xrotation Yrotation Zrotation
		JOINT WildBoar_Tail_01_02SHJnt
		{
			OFFSET -0.000000 5.092255 -8.034218
			CHANNELS 3 Xrotation Yrotation Zrotation
			JOINT WildBoar_Tail_01_03SHJnt
			{
				OFFSET -0.000000 -0.708420 -11.714390
				CHANNELS 3 Xrotation Yrotation Zrotation
				End Site
				{
					OFFSET -0.000000 11.707321 -0.816906
				}
			}
		}
	}
}
MOTION
Frames: 4
Frame Time: 0.040000
0.000000 44.410820 63.127518 -0.000000 0.000000 5.880664 -1.692028 0.059689 -2.018965 2.569832 -0.049558 -3.235008 0.332666 -0.012040 -0.569006 -1.852395 0.000274 -0.024651 0.641621 0.000000 -0.031706 -0.000000 -0.000000 -0.000000 -23.811689 6.408306 7.247417 -4.913945 0.002177 -0.047845 -10.027703 2.229481 -9.481911 39.068399 -4.526605 4.754688 0.556232 -0.032626 0.023178 0.000000 0.000000 0.000000 -0.000000 -0.000000 -0.000000 3.464682 -4.892744 -3.533713 64.074954 -0.313074 -0.503281 14.980849 13.430434 -4.595492 33.861144 -6.627651 5.346315 -0.000001 -0.000087 -0.000000 -0.000001 0.000000 -0.000000 -0.000081 0.056634 0.374671 -0.000228 0.064851 0.429241 -0.000173 0.027461 0.182230 -7.127649 -0.000000 0.000001 -0.000000 0.000000 0.000000 -0.000002 -0.000000 0.000000 -0.000001 0.000003 0.000004 0.000006 -0.000008 -0.000005 -0.000005 0.000009 0.000000 -0.000007 -0.000007 0.000006 -0.000002 0.000001 -0.000002 -0.000000 0.000003 0.000007 4.912662 4.202678 8.500475 0.000000 -0.000003 0.000007 26.150586 2.878985 -7.575586 -6.290264 -1.006775 -0.089384 56.257908 9.318373 5.486632 31.209033 -8.820079 3.865053 0.000035 -0.000322 -0.000000 0.000002 0.000000 -0.000000 -29.930394 -2.696342 -4.761727 0.178054 -0.028616 -0.000918 0.184415 -0.259560 -1.134831 29.259735 5.512962 -2.235335 0.000067 0.000611 0.000001 -0.000000 0.000000 0.000000 -0.000020 0.050989 0.044797 0.003561 -4.555390 0.089550 0.043209 -8.386031 0.589379 
0.000000 44.410820 63.318367 0.004400 -0.486429 5.585415 -0.894107 0.233604 -3.460599 2.021689 0.245494 -2.042896 -0.240071 0.030177 0.489934 -2.549830 -0.028827 1.007387 1.663108 0.016491 -1.577042 -0.000000 0.000000 -0.000000 -25.376840 6.039018 7.282921 3.427726 0.000908 0.033406 -19.253243 2.685760 -9.402979 41.695648 -4.367127 4.843976 -0.000000 -0.000060 -0.000000 -0.000000 0.000000 0.000000 -0.000000 0.000000 -0.000000 1.189167 -4.905132 -3.775989 66.917330 -0.338255 -0.514839 13.995655 13.519480 -4.582103 35.150288 -6.540138 5.381393 -0.000001 -0.000087 -0.000000 -0.000002 -0.000000 0.000000 0.124421 0.054564 0.358565 0.243041 0.063897 0.410740 0.151760 0.026958 0.174356 -7.127649 -0.000000 0.000001 0.000003 0.000000 0.000000 -0.000000 0.000000 -0.000000 0.974735 3.078163 -0.566396 0.778817 3.096304 -0.744492 -0.000005 0.000009 -0.000003 0.974734 -3.078158 0.566398 0.778828 -3.096297 0.744497 0.000006 0.000006 0.000004 4.912662 4.202677 8.500475 0.000000 -0.000004 0.000006 26.515786 3.869029 -7.928790 -10.768606 -1.714195 -0.219990 59.255600 7.764847 5.268015 31.588092 -6.804896 2.951634 0.000036 -0.000322 -0.000000 -0.000001 -0.000000 -0.000001 -27.273403 -2.651647 -4.059489 -3.620996 0.580835 0.037959 2.656482 -0.574101 -1.267661 28.007233 5.283055 -2.074433 0.000067 0.000611 0.000001 0.000000 0.000000 0.000000 -0.017365 1.499049 1.317316 0.001324 -2.769823 0.054374 0.039551 -8.026189 0.563748 
0.000000 44.410816 63.773891 0.014709 -1.621538 4.853454 -0.867809 0.660385 -4.932014 1.995169 0.927316 -0.492751 -0.446510 0.126196 1.715956 -2.941280 -0.078905 2.163796 2.252567 0.035097 -3.305867 -0.000000 0.000000 -0.000000 -25.430218 5.620324 6.989262 13.048317 0.014088 0.126164 -31.369942 3.216660 -9.062025 44.105171 -4.123652 4.817978 -0.000000 -0.000052 -0.000000 -0.000000 0.000000 0.000000 -0.000000 0.000000 -0.000000 -4.516031 -4.907983 -4.420339 73.084896 -0.394684 -0.535550 12.240603 13.735544 -4.538819 38.488802 -6.286084 5.450241 0.000000 -0.000084 -0.000000 0.000000 0.000000 -0.000000 0.359864 0.048812 0.316797 0.702490 0.059546 0.362779 0.438935 0.024939 0.153979 -7.127647 -0.000000 0.000001 -0.000002 0.000000 -0.000000 0.000002 0.000000 -0.000000 2.542549 7.491398 -1.415431 2.066402 7.552652 -1.816638 -0.000005 0.000004 -0.000007 2.542550 -7.491395 1.415433 2.066405 -7.552645 1.816641 0.000005 0.000009 0.000009 4.912659 4.202677 8.500475 0.000002 -0.000003 0.000007 26.516666 6.179080 -8.715287 -19.920156 -3.114909 -0.655905 65.774332 3.866729 4.794362 32.636095 -1.975048 0.678616 0.000035 -0.000322 -0.000000 0.000001 0.000000 -0.000000 -21.008627 -2.304359 -2.514863 -11.451150 1.820988 0.244738 7.985703 -1.244180 -1.509902 24.462988 4.766320 -1.696181 0.000067 0.000611 0.000000 0.000000 0.000000 0.000000 -0.067151 2.949131 2.593972 0.000164 -0.970929 0.019048 0.030811 -7.090436 0.497299 
0.000000 44.410820 64.380951 0.027299 -3.069288 3.823536 -2.031524 1.267441 -5.105295 2.817106 1.726736 0.425141 0.020121 0.267679 2.188401 -2.665350 -0.071121 2.541475 1.876096 0.047492 -3.860550 0.000000 0.000000 -0.000000 -22.452889 5.382490 6.333041 18.790460 0.029296 0.180026 -43.309519 3.731536 -8.511919 47.106923 -3.740602 4.682660 -0.000000 -0.000064 -0.000000 0.000000 0.000000 -0.000000 0.000000 0.000000 -0.000000 -12.061961 -4.829739 -5.382280 78.974069 -0.450340 -0.549553 11.248932 14.061571 -4.457531 43.439952 -5.867628 5.505351 -0.000001 -0.000086 -0.000000 0.000000 -0.000000 0.000000 0.539215 0.039526 0.254140 1.051962 0.049675 0.290855 0.657563 0.020713 0.123478 -7.127647 -0.000000 0.000001 0.000002 -0.000000 0.000000 0.000005 -0.000000 0.000000 3.108834 8.946513 -1.707575 2.539403 9.026952 -2.173627 -0.000008 0.000001 -0.000002 3.108838 -8.946506 1.707570 2.539409 -9.026949 2.173629 0.000004 0.000005 0.000005 4.912666 4.202677 8.500475 0.000000 -0.000003 0.000005 24.865749 9.348500 -9.477785 -29.667746 -4.506373 -1.357934 72.654040 -1.050713 4.270489 34.453199 3.767026 -2.171537 0.000037 -0.000322 -0.000001 0.000001 -0.000000 -0.000000 -13.246525 -1.308921 -0.821283 -19.040402 2.983630 0.604363 13.674423 -1.979334 -1.710110 18.559475 4.147677 -1.223136 0.000067 0.000611 0.000000 -0.000000 0.000000 0.000000 -0.141658 4.283323 3.772637 0.000165 0.976463 -0.019156 0.019740 -5.681969 0.397781 
